#!OML:ASF X:\für Bonn\!DataBase\2005_08_11_Bastian_Final\c3d\Bastian.ASF
:FULLY-SPECIFIED
:DEGREES
414
root 0.717924 1.21269 20.1369 -641.112 -0.9716 -183.363
lowerback 24.4338 -7.46578 3.50195
upperback 25.5055 -2.08025 -2.94023
thorax 14.7709 3.9722 -3.81778
lowerneck 13.6912 -0.933297 -10.7884
upperneck 10.7796 -4.39151 2.05358
head 1.4332 -3.28829 2.65101
rclavicle 5.96354e-015 -1.74931e-014
rhumerus -34.4776 17.2756 -63.7127
rradius 52.2315
rwrist 12.1353
rhand -19.4629 7.24443
rfingers 7.12502
rthumb 6.85832 -22.6245
lclavicle 5.96354e-015 -1.74931e-014
lhumerus -47.2329 -7.22401 75.6177
lradius 59.6633
lwrist -6.49462
lhand -27.0759 0.0589416
lfingers 7.12502
lthumb -0.493438 30.0381
rfemur -0.797762 10.3027 25.9791
rtibia 32.3613
rfoot -0.420317 -12.6132
rtoes -4.01627
lfemur -1.45413 8.47466 -14.9262
ltibia 34.5566
lfoot 11.611 6.78419
ltoes -14.4599
415
root 0.720782 1.21003 20.1404 -641.405 -1.03569 -183.364
lowerback 24.1747 -7.347 3.51294
upperback 25.3987 -2.04373 -2.86926
thorax 14.7682 3.92785 -3.76975
lowerneck 13.6057 -0.933845 -10.773
upperneck 10.899 -4.38413 2.04326
head 1.48626 -3.29117 2.6408
rclavicle 1.98785e-015 -8.74653e-015
rhumerus -34.2744 17.8064 -63.6438
rradius 51.5781
rwrist 12.1033
rhand -19.092 7.35928
rfingers 7.12502
rthumb 7.21636 -22.4977
lclavicle 1.98785e-015 -8.74653e-015
lhumerus -47.0955 -7.95781 75.7009
lradius 59.3922
lwrist -6.24973
lhand -26.8076 0.207575
lfingers 7.12502
lthumb -0.234254 30.1872
rfemur -0.452512 10.2971 25.972
rtibia 32.3312
rfoot -0.460827 -12.6533
rtoes -3.96752
lfemur -1.08094 8.43053 -14.9122
ltibia 34.4046
lfoot 11.7456 6.3061
ltoes -14.9945
416
root 0.723741 1.20774 20.1449 -641.67 -1.09142 -183.367
lowerback 23.9001 -7.23072 3.53429
upperback 25.2723 -2.01972 -2.80085
thorax 14.7465 3.87154 -3.73138
lowerneck 13.5723 -0.892597 -10.8591
upperneck 10.9819 -4.34443 2.11484
head 1.52094 -3.28054 2.67885
rclavicle 9.54166e-015 1.43125e-014
rhumerus -34.0578 18.3721 -63.5899
rradius 50.8624
rwrist 12.0598
rhand -18.8678 7.40002
rfingers 7.12502
rthumb 7.4328 -22.4494
lclavicle 9.54166e-015 1.43125e-014
lhumerus -46.9501 -8.62638 75.7408
lradius 59.0343
lwrist -6.01142
lhand -26.4587 0.257447
lfingers 7.12502
lthumb 0.102762 30.2372
rfemur -0.143307 10.2552 25.9579
rtibia 32.3
rfoot -0.499165 -12.6563
rtoes -3.81119
lfemur -0.732283 8.37914 -14.8947
ltibia 34.2452
lfoot 11.8479 5.8846
ltoes -15.3485
417
root 0.726172 1.20592 20.1495 -641.94 -1.12568 -183.388
lowerback 23.6206 -7.11322 3.5629
upperback 25.172 -1.98228 -2.72293
thorax 14.763 3.83075 -3.68473
lowerneck 13.4589 -0.884381 -10.9431
upperneck 11.085 -4.33174 2.14145
head 1.57661 -3.28166 2.69963
rclavicle 3.18055e-015 -3.97569e-015
rhumerus -33.7952 18.8884 -63.5361
rradius 50.1165
rwrist 11.88
rhand -18.735 7.34873
rfingers 7.12502
rthumb 7.56095 -22.4961
lclavicle 3.18055e-015 -3.97569e-015
lhumerus -46.7099 -9.30267 75.7909
lradius 58.5722
lwrist -5.71579
lhand -26.1779 0.233413
lfingers 7.12502
lthumb 0.373935 30.2128
rfemur 0.18049 10.2411 25.9812
rtibia 32.2579
rfoot -0.539421 -12.6605
rtoes -3.93064
lfemur -0.371252 8.32591 -14.8599
ltibia 34.0822
lfoot 11.9407 5.47833
ltoes -15.9822
418
root 0.728338 1.20461 20.1537 -642.21 -1.18927 -183.38
lowerback 23.3705 -6.99417 3.56571
upperback 25.0291 -1.95704 -2.65167
thorax 14.7112 3.76893 -3.6341
lowerneck 13.4431 -0.839768 -11.0472
upperneck 11.1847 -4.29599 2.19739
head 1.6145 -3.27665 2.73604
rclavicle -9.14409e-015 -1.03368e-014
rhumerus -33.5869 19.3677 -63.5159
rradius 49.3208
rwrist 11.7195
rhand -18.6811 7.28956
rfingers 7.12502
rthumb 7.61301 -22.5534
lclavicle -9.14409e-015 -1.03368e-014
lhumerus -46.5102 -9.92342 75.8207
lradius 57.995
lwrist -5.4165
lhand -25.8971 0.0640566
lfingers 7.12502
lthumb 0.645152 30.0428
rfemur 0.50637 10.1558 25.9491
rtibia 32.2175
rfoot -0.597665 -12.5943
rtoes -4.15317
lfemur -0.000898155 8.24711 -14.8572
ltibia 33.9114
lfoot 11.9941 5.15081
ltoes -16.215
419
root 0.730021 1.20278 20.1585 -642.455 -1.25105 -183.382
lowerback 23.0741 -6.87512 3.57163
upperback 24.9215 -1.92175 -2.58826
thorax 14.7291 3.72358 -3.5916
lowerneck 13.3456 -0.830156 -11.1408
upperneck 11.2781 -4.28397 2.21
head 1.66441 -3.27855 2.75437
rclavicle 3.57812e-015 -1.19271e-014
rhumerus -33.3011 19.8016 -63.4957
rradius 48.5131
rwrist 11.4048
rhand -18.6859 7.14651
rfingers 7.12502
rthumb 7.60831 -22.6966
lclavicle 3.57812e-015 -1.19271e-014
lhumerus -46.2158 -10.5395 75.8203
lradius 57.4222
lwrist -5.08698
lhand -25.5624 -0.105754
lfingers 7.12502
lthumb 0.968401 29.8718
rfemur 0.808877 10.162 25.9327
rtibia 32.1786
rfoot -0.686898 -12.6013
rtoes -4.20203
lfemur 0.348676 8.1409 -14.8674
ltibia 33.7236
lfoot 12.0132 4.93953
ltoes -16.461
420
root 0.732355 1.20169 20.1616 -642.724 -1.28331 -183.369
lowerback 22.833 -6.76932 3.58546
upperback 24.7948 -1.90211 -2.51023
thorax 14.6939 3.66672 -3.53626
lowerneck 13.3195 -0.804097 -11.2806
upperneck 11.3367 -4.26671 2.20793
head 1.69123 -3.28016 2.77809
rclavicle 1.31198e-014 1.59028e-014
rhumerus -33.0581 20.2318 -63.4935
rradius 47.6875
rwrist 11.0665
rhand -18.7881 7.05125
rfingers 7.12502
rthumb 7.50969 -22.7954
lclavicle 1.31198e-014 1.59028e-014
lhumerus -45.9782 -11.091 75.8502
lradius 56.7881
lwrist -4.788
lhand -25.3256 -0.282763
lfingers 7.12502
lthumb 1.19706 29.6936
rfemur 1.13941 10.1018 25.946
rtibia 32.1435
rfoot -0.779211 -12.5404
rtoes -4.42404
lfemur 0.735922 8.05404 -14.8304
ltibia 33.5203
lfoot 12.0053 4.75875
ltoes -16.8614
421
root 0.733194 1.20038 20.1658 -642.971 -1.34817 -183.361
lowerback 22.5727 -6.6496 3.56723
upperback 24.6613 -1.87164 -2.42748
thorax 14.6639 3.60757 -3.46023
lowerneck 13.2936 -0.789663 -11.4066
upperneck 11.4026 -4.26297 2.18081
head 1.72057 -3.28891 2.79068
rclavicle 1.11319e-014 1.74931e-014
rhumerus -32.8707 20.6936 -63.5064
rradius 46.9388
rwrist 10.6127
rhand -18.9366 6.86476
rfingers 7.12502
rthumb 7.36636 -22.987
lclavicle 1.11319e-014 1.74931e-014
lhumerus -45.7116 -11.6445 75.9032
lradius 56.1001
lwrist -4.47233
lhand -25.1067 -0.514748
lfingers 7.12502
lthumb 1.4085 29.4603
rfemur 1.44734 10.0709 25.9175
rtibia 32.1074
rfoot -0.850107 -12.4745
rtoes -4.70278
lfemur 1.11074 7.94328 -14.8448
ltibia 33.31
lfoot 11.941 4.73288
ltoes -16.784
